<svg xmlns="http://www.w3.org/2000/svg" viewBox="0 0 382.75 345.5"><defs><style>.cls-1{fill:none;}.cls-1,.cls-2{stroke:#fff;stroke-miterlimit:10;stroke-width:16px;}.cls-2{fill:#fff;}</style></defs><g id="Layer_2" data-name="Layer 2"><g id="Layer_1-2" data-name="Layer 1"><path class="cls-1" d="M315,307.5c0,16.29-34,29.5-76,29.5s-76-13.21-76-29.5"/><path class="cls-1" d="M315,262.5c0,16.29-34,29.5-76,29.5s-76-13.21-76-29.5"/><path class="cls-1" d="M315,217.5c0,16.29-34,29.5-76,29.5s-76-13.21-76-29.5"/><path class="cls-1" d="M315,172.5c0,16.29-34,29.5-76,29.5s-76-13.21-76-29.5"/><path class="cls-1" d="M315,127.5c0,16.29-34,29.5-76,29.5s-76-13.21-76-29.5"/><path class="cls-1" d="M315,82.5c0,16.29-34,29.5-76,29.5s-76-13.21-76-29.5"/><ellipse class="cls-1" cx="239" cy="37.5" rx="76" ry="29.5"/><line class="cls-1" x1="315" y1="37" x2="315" y2="308"/><line class="cls-1" x1="163" y1="308" x2="163" y2="37"/><path class="cls-1" d="M160,307.5c0,16.29-34,29.5-76,29.5S8,323.79,8,307.5"/><path class="cls-1" d="M160,262.5c0,16.29-34,29.5-76,29.5S8,278.79,8,262.5"/><path class="cls-1" d="M160,217.5c0,16.29-34,29.5-76,29.5S8,233.79,8,217.5"/><path class="cls-1" d="M160,172.5c0,16.29-34,29.5-76,29.5S8,188.79,8,172.5"/><ellipse class="cls-1" cx="84" cy="127.5" rx="76" ry="29.5"/><line class="cls-1" x1="160" y1="122" x2="160" y2="308"/><line class="cls-1" x1="8" y1="308" x2="8" y2="128"/><circle class="cls-2" cx="300" cy="262.75" r="74.75"/><path d="M292.27,306.7V303a3.4,3.4,0,0,0-2.23-3.21A25.33,25.33,0,0,1,280,293.26a33.63,33.63,0,0,1-6.16-9.37,3.43,3.43,0,0,1,2-4.59l8-2.94a3.44,3.44,0,0,1,4.17,1.53,23,23,0,0,0,4.65,5.72,12.21,12.21,0,0,0,8.25,3.31,10.44,10.44,0,0,0,6.94-2.2,7.71,7.71,0,0,0,2.6-6.21,7.32,7.32,0,0,0-1.73-5,15.46,15.46,0,0,0-4.75-3.49c-2-1-4.28-2-6.81-3s-5.11-2.17-7.65-3.36a33.19,33.19,0,0,1-6.91-4.34,18.63,18.63,0,0,1-5-6.37,21.13,21.13,0,0,1-1.87-9.36,19.8,19.8,0,0,1,4.28-12.4,19.27,19.27,0,0,1,9.94-6.62,3.43,3.43,0,0,0,2.43-3.28V218.8a3.43,3.43,0,0,1,3.43-3.43h8.22a3.43,3.43,0,0,1,3.43,3.43v2.8a3.42,3.42,0,0,0,2.23,3.21,20,20,0,0,1,8.35,5.69,28.21,28.21,0,0,1,4.48,7.18,3.44,3.44,0,0,1-2.08,4.62l-7.75,2.57a3.41,3.41,0,0,1-4-1.43,15.27,15.27,0,0,0-2.77-3.26,9.92,9.92,0,0,0-6.83-2.36,8.8,8.8,0,0,0-5.48,1.5,5.1,5.1,0,0,0-2,4.31,5.2,5.2,0,0,0,1.69,3.9,16.45,16.45,0,0,0,4.47,3q2.79,1.33,6.16,2.58,3.63,1.35,7.56,3.2a33.42,33.42,0,0,1,7.3,4.64,21.12,21.12,0,0,1,5.45,7,23.42,23.42,0,0,1,2.09,10.42,22.7,22.7,0,0,1-2.52,10.95A21.81,21.81,0,0,1,317,297a25,25,0,0,1-7.18,3.46,3.41,3.41,0,0,0-2.42,3.28v3a3.43,3.43,0,0,1-3.43,3.43H295.7A3.43,3.43,0,0,1,292.27,306.7Z"/></g></g></svg>