<svg xmlns="http://www.w3.org/2000/svg" viewBox="0 0 368.91 368.91">
    <defs>
        <style>
            .cls-1{
                fill:none;
                stroke:#fff;
                stroke-miterlimit:10;
                stroke-width:16px;
            }
        </style>
    </defs>
    <g id="Layer_2" data-name="Layer 2">
        <g id="Layer_1-2" data-name="Layer 1">
            <circle class="cls-1" cx="183.91" cy="185" r="91.5"/>
            <path fill="#fff" d="M174.45,238.8v-4.49a4.17,4.17,0,0,0-2.72-3.93,31.08,31.08,0,0,1-12.35-8,41,41,0,0,1-7.53-11.47,4.18,4.18,0,0,1,2.4-5.62l9.73-3.6a4.23,4.23,0,0,1,5.11,1.87,28.07,28.07,0,0,0,5.69,7,14.92,14.92,0,0,0,10.1,4.05,12.73,12.73,0,0,0,8.49-2.69,9.37,9.37,0,0,0,3.19-7.6,8.92,8.92,0,0,0-2.12-6.08,19.2,19.2,0,0,0-5.81-4.28q-3.69-1.86-8.34-3.65t-9.36-4.12a40.57,40.57,0,0,1-8.46-5.31,22.8,22.8,0,0,1-6.11-7.8,25.87,25.87,0,0,1-2.29-11.46,24.24,24.24,0,0,1,5.24-15.17,23.47,23.47,0,0,1,12.16-8.1,4.2,4.2,0,0,0,3-4v-3.1a4.2,4.2,0,0,1,4.2-4.2h10.06a4.2,4.2,0,0,1,4.2,4.2v3.43a4.19,4.19,0,0,0,2.74,3.93,24.36,24.36,0,0,1,10.21,7,34.38,34.38,0,0,1,5.49,8.79A4.2,4.2,0,0,1,208.8,160l-9.49,3.16a4.19,4.19,0,0,1-4.87-1.76,18.5,18.5,0,0,0-3.39-4,12.12,12.12,0,0,0-8.37-2.89,10.81,10.81,0,0,0-6.7,1.83,6.2,6.2,0,0,0-2.39,5.27,6.41,6.41,0,0,0,2.06,4.79,20.44,20.44,0,0,0,5.47,3.61q3.42,1.63,7.54,3.16,4.46,1.66,9.26,3.92a41.14,41.14,0,0,1,8.93,5.67,26,26,0,0,1,6.68,8.6,28.68,28.68,0,0,1,2.55,12.75A27.84,27.84,0,0,1,213,217.5a26.66,26.66,0,0,1-8.34,9.36,30.88,30.88,0,0,1-8.78,4.24,4.18,4.18,0,0,0-3,4v3.69a4.2,4.2,0,0,1-4.2,4.2H178.65A4.2,4.2,0,0,1,174.45,238.8Z"/>
            <path fill="#fff" d="M266.46,306.66l15.77,15.77a168.26,168.26,0,0,1-70.88,29.31v-22.3a147,147,0,0,0,55.11-22.78m.82-18.23a8.71,8.71,0,0,0-5.21,1.73,130.28,130.28,0,0,1-59.28,24.49,8.67,8.67,0,0,0-7.44,8.57v36.92a8.67,8.67,0,0,0,8.62,8.68c.32,0,.65,0,1-.05A184.09,184.09,0,0,0,298.81,330a8.65,8.65,0,0,0,.7-12.88L273.39,291a8.66,8.66,0,0,0-6.11-2.53Z"/>
            <path fill="#fff" d="M321.32,86.6a168.74,168.74,0,0,1-.74,197.8l-15.74-15.74a147.09,147.09,0,0,0,.72-166.3L321.32,86.6m.78-19.81A8.68,8.68,0,0,0,316,69.33L289.85,95.44a8.68,8.68,0,0,0-.79,11.33,131,131,0,0,1-.72,157.38,8.67,8.67,0,0,0,.75,11.39l26.09,26.08A8.65,8.65,0,0,0,328,301,185,185,0,0,0,328.86,70a8.58,8.58,0,0,0-6.76-3.25Z"/>
            <path fill="#fff" d="M39.47,212.39A147.6,147.6,0,0,0,157.34,329.6v22.27a167.11,167.11,0,0,1-47-14.73A168.92,168.92,0,0,1,17.18,212.39H39.47m6.22-16H8.77A8.66,8.66,0,0,0,.15,206,185,185,0,0,0,163.78,368.86a7.34,7.34,0,0,0,.93.05,8.67,8.67,0,0,0,8.63-8.67v-36.9a8.67,8.67,0,0,0-7.49-8.58A131.09,131.09,0,0,1,54.26,203.83a8.66,8.66,0,0,0-8.57-7.44Z"/>
            <path fill="#fff" d="M183.93,16a168.25,168.25,0,0,1,99.34,32.27L267.52,64A145.59,145.59,0,0,0,183.93,38C113,38,52,89.29,39.31,158.38H17A169,169,0,0,1,183.93,16m0-16C88.59,0,10.1,72.14.05,164.81a8.67,8.67,0,0,0,8.63,9.57H45.57a8.67,8.67,0,0,0,8.58-7.51A131,131,0,0,1,263,80.51a8.72,8.72,0,0,0,5.27,1.78,8.62,8.62,0,0,0,6.12-2.53L300.5,53.67a8.65,8.65,0,0,0-.65-12.84A184.17,184.17,0,0,0,183.93,0Z"/>
        </g>
    </g>
</svg>