<svg xmlns="http://www.w3.org/2000/svg" viewBox="0 0 42.43 53.69"><defs><style>.cls-1{fill:none;stroke:#fff;stroke-miterlimit:10;stroke-width:2px;}.cls-2{fill:#fff;}</style></defs><g id="Layer_2" data-name="Layer 2"><g id="Layer_1-2" data-name="Layer 1"><rect class="cls-1" x="1" y="18.92" width="40.43" height="7.88" rx="1.21"/><path class="cls-1" d="M4.29,26.8,6.62,47.45a5.9,5.9,0,0,0,5.87,5.24H29.94a5.91,5.91,0,0,0,5.87-5.24L38.14,26.8Z"/><path class="cls-1" d="M38.27,18.92a17,17,0,0,0-33.94,0Z"/><path class="cls-2" d="M27.7,6.56a24,24,0,0,0-12.81,0,2.88,2.88,0,0,1-3.33-2h0A2.76,2.76,0,0,1,13.63,1,28.74,28.74,0,0,1,29,1,2.76,2.76,0,0,1,31,4.55h0A2.9,2.9,0,0,1,27.7,6.56Z"/></g></g></svg>