<svg xmlns="http://www.w3.org/2000/svg" viewBox="0 0 44 44">
    <defs>
        <style>
            .cls-1{
                fill:#93e5ab;
            }
            .cls-2{
                fill:#274c45;
            }
        </style>
    </defs>
    <g id="Layer_2" data-name="Layer 2">
        <g id="Layer_1-2" data-name="Layer 1">
            <rect class="cls-1" width="44" height="44" rx="8.22"/>
            <path class="cls-2" d="M7.13,32.2V12H21.38v4.32h-9.7v3.28h6.07V24H11.68V32.2Z"/>
            <path class="cls-2" d="M20.83,32.2V12h7.66a11,11,0,0,1,4.52.85,8.26,8.26,0,0,1,3.05,2.3,9.48,9.48,0,0,1,1.73,3.24,12.78,12.78,0,0,1,.55,3.69,12.21,12.21,0,0,1-.53,3.48,9.78,9.78,0,0,1-1.68,3.27,8.46,8.46,0,0,1-3.07,2.42,10.92,10.92,0,0,1-4.69.91Zm4.55-4.35H28.8A4.51,4.51,0,0,0,31,27.34,4.2,4.2,0,0,0,32.51,26a6.26,6.26,0,0,0,.84-1.86,8.14,8.14,0,0,0,.26-2,8.49,8.49,0,0,0-.26-2.06,6.24,6.24,0,0,0-.82-1.86,4.21,4.21,0,0,0-1.39-1.33,3.86,3.86,0,0,0-2-.51H25.38Z"/>
        </g>
    </g>
</svg>