<svg xmlns="http://www.w3.org/2000/svg" viewBox="0 0 383 337.5">
    <defs>
        <style>
            .cls-1,.cls-2{
                fill:none;
                stroke:#fff;
                stroke-width:16px;
            }
            .cls-1{
                stroke-miterlimit:10;
            }
            .cls-2{
                stroke-linecap:round;
                stroke-linejoin:round;
            }
        </style>
    </defs>
    <g id="Layer_2" data-name="Layer 2">
        <g id="Layer_1-2" data-name="Layer 1">
            <path class="cls-1" d="M327.44,173.83,259.55,121.5H123.46l-67.9,52.33c-.67.51-1.36,1-2.06,1.46V326.15a3.35,3.35,0,0,0,3.35,3.35H324.16a3.35,3.35,0,0,0,3.34-3.35V173.87Z"/>
            <path fill="#fff" d="M191.5,16a18.36,18.36,0,0,1,11.3,3.85l157,121a18.5,18.5,0,1,1-22.59,29.3L201.27,65.38l-9.77-7.52-9.77,7.52L45.79,170.15a18.5,18.5,0,1,1-22.58-29.3l157-121A18.31,18.31,0,0,1,191.5,16m0-16a34.46,34.46,0,0,0-21.06,7.17l-157,121a34.5,34.5,0,0,0,42.12,54.66L191.5,78.06,327.44,182.83a34.5,34.5,0,1,0,42.12-54.66l-157-121A34.44,34.44,0,0,0,191.5,0Z"/>
            <polygon class="cls-2" points="328.5 105.5 281.5 68.5 281.5 10.5 328.5 10.5 328.5 105.5"/>
            <circle class="cls-1" cx="191.5" cy="225.5" r="73"/>
            <path fill="#fff" d="M184,268.42v-3.58a3.33,3.33,0,0,0-2.17-3.14,24.8,24.8,0,0,1-9.85-6.4,32.71,32.71,0,0,1-6-9.15,3.34,3.34,0,0,1,1.91-4.49l7.77-2.87a3.36,3.36,0,0,1,4.07,1.49,22.42,22.42,0,0,0,4.55,5.59,11.9,11.9,0,0,0,8.05,3.23,10.19,10.19,0,0,0,6.78-2.15,7.51,7.51,0,0,0,2.54-6.06A7.1,7.1,0,0,0,199.9,236a15.17,15.17,0,0,0-4.64-3.42c-2-1-4.17-2-6.65-2.91s-5-2.12-7.47-3.28a32.75,32.75,0,0,1-6.75-4.24,18.23,18.23,0,0,1-4.87-6.23,20.61,20.61,0,0,1-1.83-9.13,19.36,19.36,0,0,1,4.18-12.11,18.78,18.78,0,0,1,9.71-6.46,3.36,3.36,0,0,0,2.37-3.21v-2.47a3.35,3.35,0,0,1,3.35-3.35h8a3.35,3.35,0,0,1,3.35,3.35v2.73a3.35,3.35,0,0,0,2.18,3.14A19.42,19.42,0,0,1,209,194a27.18,27.18,0,0,1,4.38,7,3.36,3.36,0,0,1-2,4.51L203.79,208a3.33,3.33,0,0,1-3.89-1.4,15.09,15.09,0,0,0-2.7-3.18,9.74,9.74,0,0,0-6.68-2.3,8.64,8.64,0,0,0-5.35,1.45,5,5,0,0,0-1.91,4.22,5.11,5.11,0,0,0,1.65,3.81,16.33,16.33,0,0,0,4.37,2.89c1.81.86,3.82,1.7,6,2.51,2.36.89,4.83,1.93,7.39,3.13a33,33,0,0,1,7.12,4.53,20.64,20.64,0,0,1,5.33,6.86,22.81,22.81,0,0,1,2,10.17,22.08,22.08,0,0,1-2.47,10.7,21.33,21.33,0,0,1-6.64,7.47,24.57,24.57,0,0,1-7,3.38,3.34,3.34,0,0,0-2.37,3.2v2.94a3.35,3.35,0,0,1-3.35,3.35h-8A3.35,3.35,0,0,1,184,268.42Z"/>
        </g>
    </g>
</svg>