<?xml version="1.0" encoding="UTF-8"?>
<svg id="Layer_2" data-name="Layer 2" xmlns="http://www.w3.org/2000/svg" viewBox="0 0 41 41">
  <g id="Layer_1-2" data-name="Layer 1">
    <g>
      <g>
        <path d="M14.33,38.48c1.93.66,4.01,1.02,6.17,1.02,10.49,0,19-8.51,19-19,0-6.01-2.79-11.36-7.14-14.85" style="fill: none; stroke: #fff; stroke-linecap: round; stroke-linejoin: round; stroke-width: 3px;"/>
        <path d="M26.55,2.48c-1.9-.64-3.93-.98-6.05-.98C10.01,1.5,1.5,10.01,1.5,20.5c0,5.74,2.55,10.89,6.58,14.38" style="fill: none; stroke: #fff; stroke-linecap: round; stroke-linejoin: round; stroke-width: 3px;"/>
        <polyline points="9.08 28.38 9.08 35.88 1.58 35.88" style="fill: none; stroke: #fff; stroke-linecap: round; stroke-linejoin: round; stroke-width: 2.25px;"/>
        <polyline points="31.36 12.15 31.36 4.65 38.86 4.65" style="fill: none; stroke: #fff; stroke-linecap: round; stroke-linejoin: round; stroke-width: 2.25px;"/>
      </g>
      <path d="M20.5,10c-5.8,0-10.5,4.7-10.5,10.5s4.7,10.5,10.5,10.5,10.5-4.7,10.5-10.5-4.7-10.5-10.5-10.5ZM24.55,24.14c-.15.42-.36.81-.65,1.15-.29.34-.65.64-1.08.89-.43.25-.94.42-1.51.53v.42c0,.75-.34,1.12-1.01,1.12h-.09c-.7,0-1.05-.3-1.05-.9v-.64c-.29-.05-.57-.11-.84-.2-.27-.08-.53-.18-.76-.28-.24-.1-.45-.2-.63-.31-.19-.1-.34-.19-.45-.27-.56-.42-.64-.93-.22-1.54l.61-.9c.13-.2.28-.34.42-.41s.29-.11.42-.11.27.03.39.08c.12.06.23.11.32.15.3.16.6.29.9.41.3.12.62.18.96.18.28,0,.51-.05.68-.14.18-.09.26-.22.26-.41,0-.21-.13-.4-.4-.55-.26-.15-.59-.3-.99-.46-.4-.15-.82-.32-1.28-.51-.46-.19-.88-.42-1.28-.71-.39-.29-.72-.64-.99-1.07-.26-.43-.4-.96-.4-1.61,0-.93.29-1.74.87-2.41.58-.67,1.38-1.11,2.39-1.33v-.47c0-.74.35-1.11,1.05-1.11h.09c.67,0,1.01.3,1.01.89v.63c.55.08,1.04.2,1.46.36.42.16.73.31.92.43.28.18.45.4.51.66.05.26,0,.54-.15.84l-.51.96c-.11.23-.23.38-.35.47-.12.09-.25.14-.38.14-.13,0-.26-.01-.39-.06-.13-.05-.25-.09-.36-.15-.28-.12-.55-.23-.8-.32s-.54-.14-.87-.14c-.28,0-.51.04-.67.12-.17.08-.25.21-.25.39,0,.23.13.41.4.56.26.15.59.3.99.45.39.15.82.32,1.28.5.46.18.88.41,1.28.69.39.28.72.64.99,1.07.26.43.4.96.4,1.59,0,.44-.07.87-.22,1.29Z" style="fill: #fff; stroke-width: 0px;"/>
    </g>
  </g>
</svg>