<svg xmlns="http://www.w3.org/2000/svg" viewBox="0 0 48.13 48.13"><defs><style>.cls-1,.cls-3{fill:none;stroke:#fff;stroke-linecap:round;stroke-miterlimit:10;}.cls-1{stroke-width:2px;}.cls-2{fill:#fff;}</style></defs><g id="Layer_2" data-name="Layer 2"><g id="Layer_1-2" data-name="Layer 1"><polyline class="cls-1" points="47.13 47.13 1 47.13 1 1"/><path class="cls-2" d="M30.27,29.75a2.28,2.28,0,0,1-1.65-.89L15.49,12,9.15,16.49A2.53,2.53,0,0,1,7.68,17a2.06,2.06,0,0,1-1.27-.42,2.3,2.3,0,0,1,0-3.75l8.22-5.87A2.27,2.27,0,0,1,16,6.5a2.3,2.3,0,0,1,1.82.89L30.63,24l9.57-9.89a2.27,2.27,0,0,1,1.66-.7,2.29,2.29,0,0,1,1.59,4L32.09,29.05a2.31,2.31,0,0,1-1.66.7Z"/><path class="cls-2" d="M46,19.25l2-8.08a1.51,1.51,0,0,0-1.87-1.81l-8,2.29a1.5,1.5,0,0,0-.64,2.52l6,5.8A1.5,1.5,0,0,0,46,19.25Z"/><line class="cls-3" x1="7.24" y1="20.7" x2="7.24" y2="43.27"/><line class="cls-3" x1="15.08" y1="18.13" x2="15.08" y2="43.27"/><line class="cls-3" x1="22.92" y1="28.4" x2="22.92" y2="43.27"/><line class="cls-3" x1="30.76" y1="33.79" x2="30.76" y2="43.27"/><line class="cls-3" x1="38.6" y1="27.29" x2="38.6" y2="43.27"/></g></g></svg>